Cover:  
http://www.shotpix.com/images/58257960642963007394.jpg


Release Title: Juicy J Ft. Lil Wayne & 2 Chainz - Bandz A Make Her Dance (explicit) (2012)

Music video by Juicy J Ft. Lil Wayne and2 Chainz performing Bandz A Make Her Dance (Explicit). 

                              1080p Full HD MP4 Video
                                        +            
                               96 Kbps/VBR M4A Audio


Sing Along!
English subtitles included.



General

Format                         : MPEG-4
Format profile                 : Base Media / Version 2
Codec ID                       : mp42
File size                      : 44.7 MiB
Duration                       : 4mn 40s
Overall bit rate mode          : Variable
Overall bit rate               : 1 337 Kbps


Video
ID                             : 1
Format                         : AVC
Format/Info                    : Advanced Video Codec
Codec ID/Info                  : Advanced Video Coding
Bit rate mode                  : Variable
Bit rate                       : 1 200 Kbps
Width                          : 1 920 pixels
Height                         : 1 080 pixels
Display aspect ratio           : 16:9
Frame rate mode                : Variable
Frame rate                     : 23.976 fps
Bit depth                      : 8 bits
Scan type                      : Progressive
Stream size                    : 40.2 MiB (90%)


Audio
ID                             : 2
Format                         : AAC
Format/Info                    : Advanced Audio Codec
Format profile                 : LC
Bit rate mode                  : Variable
Bit rate                       : 128 Kbps
Channel(s)                     : 2 channels
Channel positions              : Front: L R
Sampling rate                  : 48.0 KHz
Stream size                    : 4.27 MiB (10%)




Subtitle                       : Yes (English)



Screens:

 
http://www.shotpix.com/images/17433275256046117792.jpg 
http://www.shotpix.com/images/29118239144967708293.jpg


Thumbs:
 
http://www.shotpix.com/images/08405704564920084220.jpg


------------------------------------------------------------------------


Notes:

* Best played on VLC Media Player.
* Install shark007 codecs in case of any kind of problem in playback (For non-VLC Media Player users).
* Alternatively, install Core AVC codecs, the fastest decoder that there is coupled with Community Center Codec Pack and play on Windows Media Player Classic.
* Read NFO
* Help in seeding this torrent as much as you can. 



Greets to: srkfan, VYTO, MgB, staff members at ExtraTorrent, TPB,KAT, 1337x, PublicHD, Ahashare,
SilverTorrent, TorrentMafia, P2PDL, and all others


Encoder Notes: Looking For Early Access To Anything You Can Provide DVDScr, R5, DVDRips, BluRay, Direct Audio, Early Music
Releases, Seedboxes, Links, Dedicated Servers anything u can provide, Advance / Promo CDs/DVDs. If You Got anything to
offer contact me at "contact@tinym.eu"


Facebook Fan Page: http : // www . facebook . com / p2pdl

                                  Enjoy!